<?xml version="1.0" standalone="no"?>
<!DOCTYPE svg PUBLIC "-//W3C//DTD SVG 20010904//EN"
 "http://www.w3.org/TR/2001/REC-SVG-20010904/DTD/svg10.dtd">
<svg version="1.0" xmlns="http://www.w3.org/2000/svg"
 width="340.000000pt" height="203.000000pt" viewBox="0 0 340.000000 203.000000"
 preserveAspectRatio="xMidYMid meet">

<g transform="translate(0.000000,203.000000) scale(0.100000,-0.100000)"
fill="#000000" stroke="none">
<path d="M1614 1840 c-240 -26 -373 -161 -399 -406 -5 -48 -2 -77 15 -134 26
-86 39 -110 94 -168 32 -33 56 -47 109 -64 37 -11 79 -18 92 -15 32 6 31 -1
-5 -51 -36 -50 -36 -52 -7 -52 41 0 84 -37 117 -99 37 -69 61 -89 116 -93 l38
-3 16 75 c9 41 24 90 34 109 18 33 19 33 70 27 83 -9 152 20 130 55 -3 6 0 17
8 26 15 19 20 71 7 94 -6 13 -2 21 16 33 32 21 31 25 -6 72 -27 34 -30 43 -24
85 5 36 2 58 -15 98 l-22 51 21 45 c11 25 21 62 21 82 0 48 -48 133 -94 168
-69 52 -205 79 -332 65z m117 -698 c-14 -26 -14 -119 -1 -127 16 -10 32 46 28
103 -2 44 -1 50 10 35 29 -39 1 -153 -37 -153 -14 0 -23 9 -27 26 -9 35 1 111
16 129 17 21 24 12 11 -13z"/>
<path d="M2014 700 c-67 -21 -101 -98 -82 -183 11 -51 39 -83 85 -98 40 -13
104 -5 138 17 72 47 73 200 1 247 -32 21 -101 29 -142 17z m97 -29 c27 -27 29
-35 29 -106 0 -87 -17 -131 -55 -141 -71 -18 -116 94 -85 208 11 37 42 68 68
68 7 0 27 -13 43 -29z"/>
<path d="M1222 570 c-29 -72 -52 -135 -52 -141 0 -6 14 -9 31 -7 27 3 34 10
53 58 l22 55 62 3 61 3 13 -61 c7 -36 17 -60 25 -60 7 0 13 1 13 3 0 1 -24 63
-53 137 l-53 135 -35 3 -35 3 -52 -131z m147 32 l21 -52 -54 0 -54 0 26 65
c28 71 28 71 61 -13z"/>
<path d="M1472 688 c3 -7 25 -71 49 -141 l44 -128 34 3 c32 3 35 6 59 76 28
80 31 80 63 -15 20 -60 22 -63 54 -63 l33 0 46 131 c25 72 46 135 46 140 0 5
-9 9 -20 9 -17 0 -20 -7 -20 -48 0 -26 -13 -86 -28 -132 l-28 -83 -46 129
c-44 126 -46 129 -76 132 -37 4 -38 0 -17 -59 15 -41 14 -46 -11 -123 l-27
-80 -46 132 -46 132 -33 0 c-23 0 -33 -4 -30 -12z"/>
</g>
</svg>
